<?xml version="1.0" encoding="UTF-8" standalone="no"?>
<svg id="svg2" xmlns="http://www.w3.org/2000/svg" height="185" width="180" version="1.0">
 <path id="shadow" fill-opacity=".2" d="m164 82c7 48-24 92-68 98-44 6.5-85.4-27-92-75-6.8-48.1 23.6-92 67.8-98.3 44.2-6.2 85.2 27.3 92.2 75.3z"/>
 <path id="blue" fill="#062" d="m176 80c6.8 48-24 92-68 98-44.1 6.5-85.4-27.3-92.1-76-6.9-47.1 23.7-91 68.1-97.3 44-6.2 85 27.3 92 75.3z"/>
 <path id="lightblue" fill-rule="evenodd" fill="#ded" d="m160 82.5c5 38.5-19 73.4-54.3 78.4-35.7 5-68.7-22-73.8-60.4-5.3-38.5 19-73.5 54.1-78.5 35-5 68 22 74 60v0.5z"/>
 <path id="tick" fill="#062" d="m87.6 153c-4.6-5-22.6-24-42.6-32-1.2-3-5-11-5.4-15 0.2-4.6 31.9 10.8 39.1 15.5-0.8-45.6 36.3-85.5 44.3-86.6 3-0.9 22 18.7 21 17.1-21 14-56 51.6-56.4 101z"/>
</svg>
